<?xml version="1.0" encoding="UTF-8"?>
<svg width="53px" height="57px" viewBox="0 0 53 57" version="1.1" xmlns="http://www.w3.org/2000/svg" xmlns:xlink="http://www.w3.org/1999/xlink">
    <!-- Generator: Sketch 50.2 (55047) - http://www.bohemiancoding.com/sketch -->
    <title>iconfilter</title>
    <desc>Created with Sketch.</desc>
    <defs></defs>
    <g id="Page-1" stroke="none" stroke-width="1" fill="none" fill-rule="evenodd">
        <g id="Landing_buttons_onhover@2x" transform="translate(-908.000000, -567.000000)" fill="#FFDE00" fill-rule="nonzero">
            <g id="Group-27" transform="translate(315.000000, 567.000000)">
                <g id="Group-16" transform="translate(593.000000, 0.000000)">
                    <g id="iconfilter">
                        <path d="M24.5816818,0.773818182 C23.7793636,0.773818182 23.1281818,1.42413636 23.1281818,2.22731818 C23.1281818,3.02963636 23.7793636,3.68081818 24.5816818,3.68081818 C25.3848636,3.68081818 26.0351818,3.02963636 26.0351818,2.22731818 C26.0351818,1.42413636 25.3857273,0.773818182 24.5816818,0.773818182" id="Shape"></path>
                        <path d="M22.2498636,2.22213636 C22.2498636,1.41895455 21.5995455,0.768636364 20.7963636,0.768636364 C19.9940455,0.768636364 19.3428636,1.41895455 19.3428636,2.22213636 C19.3428636,3.02445455 19.9940455,3.67563636 20.7963636,3.67563636 C21.5995455,3.67563636 22.2498636,3.02445455 22.2498636,2.22213636" id="Shape"></path>
                        <path d="M18.4628182,2.26704545 C18.4628182,1.46386364 17.8116364,0.813545455 17.0093182,0.813545455 C16.207,0.813545455 15.5558182,1.46386364 15.5558182,2.26704545 C15.5558182,3.06936364 16.207,3.72054545 17.0093182,3.72054545 C17.8125,3.72054545 18.4628182,3.06936364 18.4628182,2.26704545" id="Shape"></path>
                        <path d="M13.2231364,3.74559091 C14.0254545,3.74559091 14.6766364,3.09527273 14.6766364,2.29209091 C14.6766364,1.48890909 14.0254545,0.838590909 13.2231364,0.838590909 C12.4199545,0.838590909 11.7696364,1.48890909 11.7696364,2.29209091 C11.7696364,3.09527273 12.4199545,3.74559091 13.2231364,3.74559091" id="Shape"></path>
                        <path d="M9.43695455,3.74559091 C10.2392727,3.74559091 10.8904545,3.09527273 10.8904545,2.29209091 C10.8904545,1.48890909 10.2392727,0.838590909 9.43695455,0.838590909 C8.63463636,0.838590909 7.98345455,1.48890909 7.98345455,2.29209091 C7.98345455,3.09527273 8.63463636,3.74559091 9.43695455,3.74559091" id="Shape"></path>
                        <path d="M28.3687273,3.74559091 C29.1710455,3.74559091 29.8222273,3.09527273 29.8222273,2.29209091 C29.8222273,1.48890909 29.1710455,0.838590909 28.3687273,0.838590909 C27.5664091,0.838590909 26.9152273,1.48890909 26.9152273,2.29209091 C26.9152273,3.09527273 27.5664091,3.74559091 28.3687273,3.74559091" id="Shape"></path>
                        <path d="M5.65077273,3.74559091 C6.45309091,3.74559091 7.10427273,3.09527273 7.10427273,2.29209091 C7.10427273,1.48890909 6.45309091,0.838590909 5.65077273,0.838590909 C4.84759091,0.838590909 4.19727273,1.48890909 4.19727273,2.29209091 C4.19727273,3.09527273 4.84759091,3.74559091 5.65077273,3.74559091" id="Shape"></path>
                        <path d="M1.86459091,3.74559091 C2.66690909,3.74559091 3.31809091,3.09527273 3.31809091,2.29209091 C3.31809091,1.48890909 2.66690909,0.838590909 1.86459091,0.838590909 C1.06227273,0.838590909 0.411090909,1.48890909 0.411090909,2.29209091 C0.411090909,3.09527273 1.06227273,3.74559091 1.86459091,3.74559091" id="Shape"></path>
                        <path d="M44.9669545,2.26704545 C44.9669545,1.46386364 44.3157727,0.813545455 43.5134545,0.813545455 C42.7111364,0.813545455 42.0599545,1.46386364 42.0599545,2.26704545 C42.0599545,3.06936364 42.7111364,3.72054545 43.5134545,3.72054545 C44.3157727,3.72054545 44.9669545,3.06936364 44.9669545,2.26704545" id="Shape"></path>
                        <path d="M39.7272727,3.74559091 C40.5295909,3.74559091 41.1807727,3.09527273 41.1807727,2.29209091 C41.1807727,1.48890909 40.5295909,0.838590909 39.7272727,0.838590909 C38.9249545,0.838590909 38.2737727,1.48890909 38.2737727,2.29209091 C38.2737727,3.09527273 38.9249545,3.74559091 39.7272727,3.74559091" id="Shape"></path>
                        <path d="M35.9410909,3.74559091 C36.7434091,3.74559091 37.3945909,3.09527273 37.3945909,2.29209091 C37.3945909,1.48890909 36.7434091,0.838590909 35.9410909,0.838590909 C35.1387727,0.838590909 34.4875909,1.48890909 34.4875909,2.29209091 C34.4875909,3.09527273 35.1387727,3.74559091 35.9410909,3.74559091" id="Shape"></path>
                        <path d="M32.1549091,3.74559091 C32.9572273,3.74559091 33.6084091,3.09527273 33.6084091,2.29209091 C33.6084091,1.48890909 32.9572273,0.838590909 32.1549091,0.838590909 C31.3525909,0.838590909 30.7014091,1.48890909 30.7014091,2.29209091 C30.7014091,3.09527273 31.3525909,3.74559091 32.1549091,3.74559091" id="Shape"></path>
                        <path d="M51.0858182,3.74559091 C51.8881364,3.74559091 52.5393182,3.09527273 52.5393182,2.29209091 C52.5393182,1.48890909 51.8881364,0.838590909 51.0858182,0.838590909 C50.2835,0.838590909 49.6323182,1.48890909 49.6323182,2.29209091 C49.6323182,3.09527273 50.2835,3.74559091 51.0858182,3.74559091" id="Shape"></path>
                        <path d="M47.2996364,3.74559091 C48.1019545,3.74559091 48.7531364,3.09527273 48.7531364,2.29209091 C48.7531364,1.48890909 48.1019545,0.838590909 47.2996364,0.838590909 C46.4973182,0.838590909 45.8461364,1.48890909 45.8461364,2.29209091 C45.8461364,3.09527273 46.4973182,3.74559091 47.2996364,3.74559091" id="Shape"></path>
                        <path d="M1.86459091,8.15704545 C2.66690909,8.15704545 3.31809091,7.50672727 3.31809091,6.70354545 C3.31809091,5.90036364 2.66690909,5.25004545 1.86459091,5.25004545 C1.06227273,5.25004545 0.411090909,5.90036364 0.411090909,6.70354545 C0.411090909,7.50672727 1.06227273,8.15704545 1.86459091,8.15704545" id="Shape"></path>
                        <path d="M51.0858182,8.15704545 C51.8881364,8.15704545 52.5393182,7.50672727 52.5393182,6.70354545 C52.5393182,5.90036364 51.8881364,5.25004545 51.0858182,5.25004545 C50.2835,5.25004545 49.6323182,5.90036364 49.6323182,6.70354545 C49.6323182,7.50672727 50.2835,8.15704545 51.0858182,8.15704545" id="Shape"></path>
                        <path d="M5.65077273,12.5685 C6.45309091,12.5685 7.10427273,11.9181818 7.10427273,11.115 C7.10427273,10.3118182 6.45309091,9.6615 5.65077273,9.6615 C4.84759091,9.6615 4.19727273,10.3118182 4.19727273,11.115 C4.19727273,11.9181818 4.84759091,12.5685 5.65077273,12.5685" id="Shape"></path>
                        <path d="M47.2996364,12.5685 C48.1019545,12.5685 48.7531364,11.9181818 48.7531364,11.115 C48.7531364,10.3118182 48.1019545,9.6615 47.2996364,9.6615 C46.4973182,9.6615 45.8461364,10.3118182 45.8461364,11.115 C45.8461364,11.9181818 46.4973182,12.5685 47.2996364,12.5685" id="Shape"></path>
                        <path d="M9.43695455,16.9808182 C10.2392727,16.9808182 10.8904545,16.3305 10.8904545,15.5273182 C10.8904545,14.7241364 10.2392727,14.0738182 9.43695455,14.0738182 C8.63463636,14.0738182 7.98345455,14.7241364 7.98345455,15.5273182 C7.98345455,16.3305 8.63463636,16.9808182 9.43695455,16.9808182" id="Shape"></path>
                        <path d="M44.9669545,15.5273182 C44.9669545,14.7241364 44.3157727,14.0738182 43.5134545,14.0738182 C42.7111364,14.0738182 42.0599545,14.7241364 42.0599545,15.5273182 C42.0599545,16.3296364 42.7111364,16.9808182 43.5134545,16.9808182 C44.3157727,16.9808182 44.9669545,16.3296364 44.9669545,15.5273182" id="Shape"></path>
                        <path d="M13.2231364,9.66236364 C12.4208182,9.66236364 11.7696364,10.3126818 11.7696364,11.1158636 C11.7696364,11.9181818 12.4208182,12.5693636 13.2231364,12.5693636 C14.0263182,12.5693636 14.6766364,11.9181818 14.6766364,11.1158636 C14.6766364,10.3118182 14.0263182,9.66236364 13.2231364,9.66236364" id="Shape"></path>
                        <path d="M10.8904545,11.1158636 C10.8904545,10.3126818 10.2401364,9.66236364 9.43695455,9.66236364 C8.63463636,9.66236364 7.98345455,10.3126818 7.98345455,11.1158636 C7.98345455,11.9181818 8.63463636,12.5693636 9.43695455,12.5693636 C10.2401364,12.5693636 10.8904545,11.9181818 10.8904545,11.1158636" id="Shape"></path>
                        <path d="M13.2231364,21.3922727 C14.0254545,21.3922727 14.6766364,20.7419545 14.6766364,19.9387727 C14.6766364,19.1355909 14.0254545,18.4852727 13.2231364,18.4852727 C12.4199545,18.4852727 11.7696364,19.1355909 11.7696364,19.9387727 C11.7696364,20.7419545 12.4199545,21.3922727 13.2231364,21.3922727" id="Shape"></path>
                        <path d="M17.0093182,12.5693636 C17.8116364,12.5693636 18.4628182,11.9190455 18.4628182,11.1158636 C18.4628182,10.3126818 17.8116364,9.66236364 17.0093182,9.66236364 C16.207,9.66236364 15.5558182,10.3126818 15.5558182,11.1158636 C15.5558182,11.9190455 16.207,12.5693636 17.0093182,12.5693636" id="Shape"></path>
                        <path d="M39.7272727,21.3922727 C40.5295909,21.3922727 41.1807727,20.7419545 41.1807727,19.9387727 C41.1807727,19.1355909 40.5295909,18.4852727 39.7272727,18.4852727 C38.9249545,18.4852727 38.2737727,19.1355909 38.2737727,19.9387727 C38.2737727,20.7419545 38.9249545,21.3922727 39.7272727,21.3922727" id="Shape"></path>
                        <path d="M20.7963636,12.5693636 C21.5986818,12.5693636 22.2498636,11.9190455 22.2498636,11.1158636 C22.2498636,10.3126818 21.5986818,9.66236364 20.7963636,9.66236364 C19.9940455,9.66236364 19.3428636,10.3126818 19.3428636,11.1158636 C19.342,11.9190455 19.9931818,12.5693636 20.7963636,12.5693636" id="Shape"></path>
                        <path d="M24.5816818,12.5693636 C25.384,12.5693636 26.0351818,11.9190455 26.0351818,11.1158636 C26.0351818,10.3126818 25.384,9.66236364 24.5816818,9.66236364 C23.7793636,9.66236364 23.1281818,10.3126818 23.1281818,11.1158636 C23.1281818,11.9190455 23.7793636,12.5693636 24.5816818,12.5693636" id="Shape"></path>
                        <path d="M18.4628182,24.3243182 C18.4628182,23.5211364 17.8116364,22.8708182 17.0093182,22.8708182 C16.207,22.8708182 15.5558182,23.5211364 15.5558182,24.3243182 C15.5558182,25.1266364 16.207,25.7778182 17.0093182,25.7778182 C17.8125,25.7778182 18.4628182,25.1266364 18.4628182,24.3243182" id="Shape"></path>
                        <path d="M35.9410909,25.8028636 C36.7434091,25.8028636 37.3945909,25.1525455 37.3945909,24.3493636 C37.3945909,23.5461818 36.7434091,22.8958636 35.9410909,22.8958636 C35.1387727,22.8958636 34.4875909,23.5461818 34.4875909,24.3493636 C34.4875909,25.1534091 35.1387727,25.8028636 35.9410909,25.8028636" id="Shape"></path>
                        <path d="M22.2498636,28.6908636 C22.2498636,27.8876818 21.5995455,27.2373636 20.7963636,27.2373636 C19.9940455,27.2373636 19.3428636,27.8876818 19.3428636,28.6908636 C19.3428636,29.4931818 19.9940455,30.1443636 20.7963636,30.1443636 C21.5995455,30.1443636 22.2498636,29.4931818 22.2498636,28.6908636" id="Shape"></path>
                        <path d="M32.1549091,30.2143182 C32.9572273,30.2143182 33.6084091,29.564 33.6084091,28.7608182 C33.6084091,27.9576364 32.9572273,27.3073182 32.1549091,27.3073182 C31.3525909,27.3073182 30.7014091,27.9576364 30.7014091,28.7608182 C30.7014091,29.564 31.3525909,30.2143182 32.1549091,30.2143182" id="Shape"></path>
                        <path d="M22.2498636,33.1023182 C22.2498636,32.2991364 21.5995455,31.6488182 20.7963636,31.6488182 C19.9940455,31.6488182 19.3428636,32.2991364 19.3428636,33.1023182 C19.3428636,33.9046364 19.9940455,34.5558182 20.7963636,34.5558182 C21.5995455,34.5558182 22.2498636,33.9046364 22.2498636,33.1023182" id="Shape"></path>
                        <path d="M32.1549091,34.6257727 C32.9572273,34.6257727 33.6084091,33.9754545 33.6084091,33.1722727 C33.6084091,32.3690909 32.9572273,31.7187727 32.1549091,31.7187727 C31.3525909,31.7187727 30.7014091,32.3690909 30.7014091,33.1722727 C30.7014091,33.9754545 31.3525909,34.6257727 32.1549091,34.6257727" id="Shape"></path>
                        <path d="M22.2498636,37.5137727 C22.2498636,36.7105909 21.5995455,36.0602727 20.7963636,36.0602727 C19.9940455,36.0602727 19.3428636,36.7105909 19.3428636,37.5137727 C19.3428636,38.3160909 19.9940455,38.9672727 20.7963636,38.9672727 C21.5995455,38.9672727 22.2498636,38.3160909 22.2498636,37.5137727" id="Shape"></path>
                        <path d="M32.1549091,39.0372273 C32.9572273,39.0372273 33.6084091,38.3869091 33.6084091,37.5837273 C33.6084091,36.7805455 32.9572273,36.1302273 32.1549091,36.1302273 C31.3525909,36.1302273 30.7014091,36.7805455 30.7014091,37.5837273 C30.7014091,38.3869091 31.3525909,39.0372273 32.1549091,39.0372273" id="Shape"></path>
                        <path d="M22.2498636,41.9252273 C22.2498636,41.1220455 21.5995455,40.4717273 20.7963636,40.4717273 C19.9940455,40.4717273 19.3428636,41.1220455 19.3428636,41.9252273 C19.3428636,42.7275455 19.9940455,43.3787273 20.7963636,43.3787273 C21.5995455,43.3787273 22.2498636,42.7275455 22.2498636,41.9252273" id="Shape"></path>
                        <path d="M32.1549091,43.4495455 C32.9572273,43.4495455 33.6084091,42.7992273 33.6084091,41.9960455 C33.6084091,41.1928636 32.9572273,40.5425455 32.1549091,40.5425455 C31.3525909,40.5425455 30.7014091,41.1928636 30.7014091,41.9960455 C30.7014091,42.7992273 31.3525909,43.4495455 32.1549091,43.4495455" id="Shape"></path>
                        <path d="M22.2498636,46.3366818 C22.2498636,45.5335 21.5995455,44.8831818 20.7963636,44.8831818 C19.9940455,44.8831818 19.3428636,45.5335 19.3428636,46.3366818 C19.3428636,47.139 19.9940455,47.7901818 20.7963636,47.7901818 C21.5995455,47.7901818 22.2498636,47.139 22.2498636,46.3366818" id="Shape"></path>
                        <path d="M28.3687273,47.8601364 C29.1710455,47.8601364 29.8222273,47.2098182 29.8222273,46.4066364 C29.8222273,45.6034545 29.1710455,44.9531364 28.3687273,44.9531364 C27.5664091,44.9531364 26.9152273,45.6034545 26.9152273,46.4066364 C26.9152273,47.2106818 27.5664091,47.8601364 28.3687273,47.8601364" id="Shape"></path>
                        <path d="M24.5816818,49.2998182 C23.7793636,49.2998182 23.1281818,49.9501364 23.1281818,50.7533182 C23.1281818,51.5556364 23.7793636,52.2068182 24.5816818,52.2068182 C25.3848636,52.2068182 26.0351818,51.5556364 26.0351818,50.7533182 C26.0351818,49.9501364 25.3857273,49.2998182 24.5816818,49.2998182" id="Shape"></path>
                        <path d="M22.2498636,50.7481364 C22.2498636,49.9449545 21.5995455,49.2946364 20.7963636,49.2946364 C19.9940455,49.2946364 19.3428636,49.9449545 19.3428636,50.7481364 C19.3428636,51.5504545 19.9940455,52.2016364 20.7963636,52.2016364 C21.5995455,52.2016364 22.2498636,51.5504545 22.2498636,50.7481364" id="Shape"></path>
                        <path d="M22.2498636,55.1587273 C22.2498636,54.3555455 21.5995455,53.7052273 20.7963636,53.7052273 C19.9940455,53.7052273 19.3428636,54.3555455 19.3428636,55.1587273 C19.3428636,55.9619091 19.9940455,56.6130909 20.7963636,56.6130909 C21.5995455,56.6130909 22.2498636,55.9619091 22.2498636,55.1587273" id="Shape"></path>
                    </g>
                </g>
            </g>
        </g>
    </g>
</svg>